<mxfile host="app.diagrams.net" modified="2023-10-01T05:01:57.172Z" agent="Mozilla/5.0 (Linux; Android 10; K) AppleWebKit/537.36 (KHTML, like Gecko) Chrome/117.0.0.0 Mobile Safari/537.36" version="22.0.0" etag="m8DS66FuNGcDh5vT9AAS" type="github">
  <diagram name="Страница — 1" id="h2AG0PePgCKKNOmCDq06">
    <mxGraphModel>
      <root>
        <mxCell id="0" />
        <mxCell id="1" parent="0" />
      </root>
    </mxGraphModel>
  </diagram>
</mxfile>
